<svg width="140" height="140" viewBox="0 0 140 140" fill="none" xmlns="http://www.w3.org/2000/svg"><mask id="a" style="mask-type:alpha" maskUnits="userSpaceOnUse" x="45" y="8" width="77" height="99"><path fill-rule="evenodd" clip-rule="evenodd" d="M121.433 25.832v77.08l-3.978 3.972h-67.81c-1.562-1.549-2.427-2.423-3.98-3.972v-90.77c1.553-1.549 2.418-2.422 3.98-3.971h54.089l17.699 17.661z" fill="#fff"/></mask><g mask="url(#a)"><path fill-rule="evenodd" clip-rule="evenodd" d="M40.82 3.326h85.458v108.402H40.821V3.326z" fill="#FFCE32"/></g><mask id="b" style="mask-type:alpha" maskUnits="userSpaceOnUse" x="72" y="57" width="50" height="50"><path fill-rule="evenodd" clip-rule="evenodd" d="M121.43 57.883v45.033l-3.979 3.971H72.319l49.111-49.004z" fill="#fff"/></mask><g mask="url(#b)"><path fill-rule="evenodd" clip-rule="evenodd" d="M67.474 53.038h58.801v58.693H67.474V53.038z" fill="#D8B87A"/></g><mask id="c" style="mask-type:alpha" maskUnits="userSpaceOnUse" x="103" y="8" width="19" height="18"><path fill-rule="evenodd" clip-rule="evenodd" d="M121.433 25.832h-17.699V8.171l17.699 17.661z" fill="#fff"/></mask><g mask="url(#c)"><path fill-rule="evenodd" clip-rule="evenodd" d="M98.889 3.326h27.389v27.35h-27.39V3.327z" fill="#F8FBCF"/></g><path d="M107.975 38.871v5.814H62.977v-5.814h44.998zm0 9.204v5.814H62.977v-5.814h44.998zm0 9.205v5.814H62.977V57.28h44.998zm0 9.204v5.814H62.977v-5.814h44.998zm0 9.205v5.813H62.977V75.69h44.998z" fill="#003035"/><path d="M45.336 47.398l4.753 4.764-27.754 27.692-4.753-4.764 27.754-27.692zm52.092 52.92l4.752 4.763-24.597 24.544-4.753-4.764 24.598-24.543zm-43.617-8.351l4.753 4.764-37.782 37.697-4.752-4.763 37.78-37.698z" fill="#23E5DB"/></svg>